# xmcd
# 
# Track frame offsets:
#     150
#     15025
#     30678
#     47989
#     64516
# 
# Disc length: 1128
# 
# Revision: 0
# Processed by: cddbd v1.5.2PL0 Copyright (c) Steve Scherf et al.
# Submitted via: fre:ac v1.0.31
# 
DISCID=31046605
DTITLE=littleSUNDAY - Cross the Line - Little Sunday - 5 track demo
DYEAR=2006
DGENRE=rock
TTITLE0=LEAVE
TTITLE1=CROSS THE LINE
TTITLE2=IN THE END
TTITLE3=STOP THE RAIN
TTITLE4=DRAINED
EXTD=
EXTT0=
EXTT1=
EXTT2=
EXTT3=
EXTT4=
PLAYORDER=
